<svg xmlns="http://www.w3.org/2000/svg" xmlns:xlink="http://www.w3.org/1999/xlink" width="105" height="105" viewBox="0 0 105 105">
  <defs>
    <clipPath id="clip-path">
      <rect id="Rectangle_6202" data-name="Rectangle 6202" width="70" height="70" transform="translate(309 1038)" fill="#fff" stroke="#fff" stroke-width="1"/>
    </clipPath>
  </defs>
  <g id="Group_12620" data-name="Group 12620" transform="translate(-291 -1020)">
    <circle id="Ellipse_579" data-name="Ellipse 579" cx="52.5" cy="52.5" r="52.5" transform="translate(291 1020)" fill="#1492e6"/>
    <g id="Mask_Group_136" data-name="Mask Group 136" clip-path="url(#clip-path)">
      <path id="noun-time-534806" d="M34.959,52.418A26.209,26.209,0,0,1,34.959,0a2.184,2.184,0,0,1,0,4.368A21.841,21.841,0,1,0,56.8,26.208a2.184,2.184,0,0,1,4.368,0A26.238,26.238,0,0,1,34.958,52.417Zm0-48.049a2.3,2.3,0,0,1-1.551-.633,2.3,2.3,0,0,1-.633-1.551A2.3,2.3,0,0,1,33.408.634a2.287,2.287,0,0,1,3.1,0,2.3,2.3,0,0,1,.633,1.551,2.3,2.3,0,0,1-.633,1.551,2.3,2.3,0,0,1-1.551.633ZM55.14,17.844A2.188,2.188,0,1,1,58,19.023a2.356,2.356,0,0,1-.83.175,2.173,2.173,0,0,1-2.031-1.354ZM50.4,10.767a2.2,2.2,0,0,1,0-3.1,2.175,2.175,0,0,1,3.079,0A2.184,2.184,0,0,1,51.951,11.4a2.246,2.246,0,0,1-1.553-.633ZM43.324,6.028a2.188,2.188,0,0,1,1.681-4.041,2.184,2.184,0,0,1-.852,4.193,2.15,2.15,0,0,1-.83-.153Zm15.66,22.365a2.163,2.163,0,1,1,1.551-.633,2.293,2.293,0,0,1-1.551.633ZM43.693,32.761a2.19,2.19,0,0,1-.974-.229l-8.736-4.368a2.186,2.186,0,0,1-1.208-1.955V10.92a2.184,2.184,0,0,1,4.368,0V24.859l7.529,3.765a2.183,2.183,0,0,1-.978,4.136Z" transform="translate(309.041 1046.791)" fill="#fff"/>
    </g>
  </g>
</svg>
