<svg xmlns="http://www.w3.org/2000/svg" xmlns:xlink="http://www.w3.org/1999/xlink" width="105" height="105" viewBox="0 0 105 105">
  <defs>
    <clipPath id="clip-path">
      <rect id="Rectangle_6201" data-name="Rectangle 6201" width="70" height="70" transform="translate(309 1038)" fill="#fff" stroke="#707070" stroke-width="1"/>
    </clipPath>
  </defs>
  <g id="Group_12607" data-name="Group 12607" transform="translate(-291 -1020)">
    <circle id="Ellipse_579" data-name="Ellipse 579" cx="52.5" cy="52.5" r="52.5" transform="translate(291 1020)" fill="#1492e6"/>
    <g id="Mask_Group_128" data-name="Mask Group 128" clip-path="url(#clip-path)">
      <g id="noun-design-1230861" transform="translate(294.248 1032.532)">
        <path id="Path_3744" data-name="Path 3744" d="M30.541,20.095h9.722a18.427,18.427,0,0,0-7.742,9.542H35.4a15.276,15.276,0,0,1,8.371-8.371V17.394H30.541a4.1,4.1,0,0,0-3.781-2.7,4.051,4.051,0,1,0,0,8.1,4.191,4.191,0,0,0,3.781-2.7Zm-3.781,0a1.35,1.35,0,1,1,1.35-1.35A1.384,1.384,0,0,1,26.76,20.095ZM72.67,14.784a3.974,3.974,0,0,0-3.781,2.7H55.656v3.87a15.276,15.276,0,0,1,8.371,8.371h2.881a17.676,17.676,0,0,0-7.742-9.542h9.722a4.1,4.1,0,0,0,3.781,2.7,4.051,4.051,0,0,0,0-8.1Zm0,5.311a1.35,1.35,0,1,1,1.35-1.35A1.384,1.384,0,0,1,72.67,20.095ZM61.6,46.92c-8.1-3.151-10.532-19.174-10.532-19.354s-.09-.27-.18-.45v-.09c-.09-.09-.18-.27-.27-.36h-.09a.684.684,0,0,0-.36-.18c-.181,0-.271-.09-.451-.09a.814.814,0,0,0-.45.09c-.09.09-.27.09-.36.18h-.09a1.244,1.244,0,0,0-.27.36v.09c-.09.09-.09.27-.18.36,0,.18-2.431,16.113-10.532,19.354a1.354,1.354,0,0,0-.81.9,1.335,1.335,0,0,0,.18,1.17,57.466,57.466,0,0,1,7.021,15.393H42.064a1.35,1.35,0,0,0,0,2.7H57.457a1.35,1.35,0,1,0,0-2.7H55.3A59.212,59.212,0,0,1,62.318,48.9a1.379,1.379,0,0,0,.18-1.17,1.588,1.588,0,0,0-.9-.809ZM49.715,51.6a1.709,1.709,0,0,1,1.711,1.711,1.711,1.711,0,0,1-3.421,0A1.709,1.709,0,0,1,49.715,51.6Zm2.7,12.693h-5.4a58.973,58.973,0,0,0-6.751-15.573c3.87-2.25,6.392-6.662,8.1-10.8V49.171A4.424,4.424,0,1,0,54.126,53.4a4.582,4.582,0,0,0-3.06-4.231V37.829c1.62,4.231,4.231,8.642,8.1,10.8a64.8,64.8,0,0,0-6.751,15.663ZM46.924,22.886h5.581a1.384,1.384,0,0,0,1.35-1.35V15.955a1.384,1.384,0,0,0-1.35-1.35H46.924a1.384,1.384,0,0,0-1.35,1.35v5.581A1.325,1.325,0,0,0,46.924,22.886Zm1.35-5.581h2.881v2.881H48.274ZM37.022,32.878a1.384,1.384,0,0,0-1.35-1.35H30.091a1.384,1.384,0,0,0-1.35,1.35v5.581a1.384,1.384,0,0,0,1.35,1.35h5.581a1.384,1.384,0,0,0,1.35-1.35Zm-2.7,4.231H31.44V34.228h2.881Zm35.017-5.581H63.758a1.384,1.384,0,0,0-1.35,1.35v5.581a1.384,1.384,0,0,0,1.35,1.35h5.581a1.384,1.384,0,0,0,1.35-1.35V32.878A1.275,1.275,0,0,0,69.339,31.528Zm-1.35,5.581H65.108V34.228h2.881Z" fill="#fff"/>
      </g>
    </g>
  </g>
</svg>
