<svg xmlns="http://www.w3.org/2000/svg" xmlns:xlink="http://www.w3.org/1999/xlink" width="105" height="105" viewBox="0 0 105 105">
  <defs>
    <clipPath id="clip-path">
      <rect id="Rectangle_6202" data-name="Rectangle 6202" width="70" height="70" transform="translate(309 1038)" fill="#fff" stroke="#fff" stroke-width="1"/>
    </clipPath>
  </defs>
  <g id="Group_12611" data-name="Group 12611" transform="translate(-291 -1020)">
    <circle id="Ellipse_579" data-name="Ellipse 579" cx="52.5" cy="52.5" r="52.5" transform="translate(291 1020)" fill="#1492e6"/>
    <g id="Mask_Group_131" data-name="Mask Group 131" clip-path="url(#clip-path)">
      <g id="noun-large-5133894" transform="translate(301.984 1038.008)">
        <path id="Path_3747" data-name="Path 3747" d="M51.458,42.745c.038-.049.075-.1.109-.149.005-.007.009-.015.014-.021a1.1,1.1,0,0,0,.085-.151.237.237,0,0,0,.012-.023c.027-.052.052-.1.074-.159l.008-.019c.022-.055.042-.112.059-.17a.021.021,0,0,1,0-.015c.017-.058.032-.117.043-.178h0a.039.039,0,0,0,0-.012c.012-.06.02-.121.026-.183a.07.07,0,0,0,0-.011c.006-.062.009-.124.009-.188V29.929a2.039,2.039,0,0,0-4.078,0v6.614l-14.789-14.8,14.8-14.8v6.614a2.039,2.039,0,0,0,4.078,0V2.03a1.235,1.235,0,0,0-.009-.187h0a.069.069,0,0,0,0-.011c-.006-.062-.015-.122-.026-.183a.076.076,0,0,0,0-.012q-.018-.091-.043-.178a.021.021,0,0,0,0-.015c-.017-.058-.037-.114-.059-.17l-.008-.019c-.022-.054-.047-.107-.074-.159,0-.008-.008-.015-.012-.023-.027-.052-.057-.1-.085-.151,0-.007-.008-.015-.014-.021-.034-.052-.07-.1-.109-.149L51.454.738a1.607,1.607,0,0,0-.136-.151c-.049-.049-.1-.093-.151-.137l-.013-.01c-.048-.038-.1-.075-.149-.109L50.984.318a1.1,1.1,0,0,0-.151-.085L50.81.222c-.052-.027-.1-.052-.159-.074L50.627.136c-.055-.022-.111-.042-.17-.059l-.015,0a1.784,1.784,0,0,0-.178-.043h-.012c-.06-.012-.121-.02-.183-.027h-.011C50,0,49.934-.008,49.872-.008H38.332a2.039,2.039,0,0,0,0,4.078h6.614l-14.8,14.795-14.8-14.8H21.97a2.039,2.039,0,0,0,0-4.078H10.431A1.337,1.337,0,0,0,10.246,0h-.012c-.061.006-.122.015-.182.025h-.014C9.98.037,9.92.052,9.862.069L9.845.077c-.058.017-.114.037-.17.059L9.654.144C9.6.166,9.548.191,9.5.217L9.472.23c-.051.027-.1.057-.151.085L9.3.33c-.051.034-.1.07-.148.109L9.138.449a1.607,1.607,0,0,0-.151.136H9c-.049.049-.093.1-.136.151L8.849.75C8.81.8,8.774.846,8.74.9c-.005.007-.009.015-.014.021a1.1,1.1,0,0,0-.085.151c0,.008-.008.015-.012.023-.027.052-.052.1-.074.159l-.016.02c-.022.055-.042.111-.059.17a.019.019,0,0,1,0,.015,1.784,1.784,0,0,0-.043.178h0a.039.039,0,0,0,0,.012c-.012.06-.02.121-.026.183a.033.033,0,0,0,0,.011C8.4,1.9,8.4,1.965,8.4,2.028v11.54a2.039,2.039,0,0,0,4.078,0V6.953l14.793,14.8-14.8,14.8V29.929a2.039,2.039,0,0,0-4.078,0V41.467a1.247,1.247,0,0,0,.009.188h0a.069.069,0,0,0,0,.011c.006.061.015.122.026.183a.077.077,0,0,0,0,.012c.012.06.026.12.043.178a.021.021,0,0,0,0,.015c.017.058.037.114.059.17l.008.019c.022.054.047.107.074.159,0,.008.008.015.012.023.027.052.057.1.085.151,0,.007.008.015.014.021.034.051.07.1.109.149l.011.013h0A1.912,1.912,0,0,0,9,42.909c.049.049.1.093.151.136l.014.011c.049.038.1.075.149.109l.021.014a1.284,1.284,0,0,0,.151.085l.024.012c.052.027.1.052.159.074l.019.008c.055.022.111.042.17.059l.015,0a1.784,1.784,0,0,0,.178.043h.012c.06.012.121.02.183.026h.011c.062.006.124.009.188.009H21.97a2.039,2.039,0,0,0,0-4.078H15.356l14.8-14.789,14.8,14.8H38.332a2.039,2.039,0,0,0,0,4.078H49.869a1.247,1.247,0,0,0,.188-.009h.011c.061-.006.122-.015.183-.026h.012q.091-.018.178-.043l.015,0c.058-.017.114-.037.17-.059l.019-.008c.054-.022.107-.047.159-.074l.024-.012q.076-.041.151-.085L51,43.171c.052-.034.1-.07.149-.109l.014-.011a1.608,1.608,0,0,0,.151-.136,1.946,1.946,0,0,0,.136-.151Z" transform="translate(11.485 12.865)" fill="#fff"/>
      </g>
    </g>
  </g>
</svg>
