<svg xmlns="http://www.w3.org/2000/svg" xmlns:xlink="http://www.w3.org/1999/xlink" width="105" height="105" viewBox="0 0 105 105">
  <defs>
    <clipPath id="clip-path">
      <rect id="Rectangle_6202" data-name="Rectangle 6202" width="70" height="70" transform="translate(309 1038)" fill="#fff" stroke="#fff" stroke-width="1"/>
    </clipPath>
  </defs>
  <g id="Group_12647" data-name="Group 12647" transform="translate(-291 -1020)">
    <circle id="Ellipse_579" data-name="Ellipse 579" cx="52.5" cy="52.5" r="52.5" transform="translate(291 1020)" fill="#1492e6"/>
    <g id="Mask_Group_137" data-name="Mask Group 137" clip-path="url(#clip-path)">
      <g id="noun-laptop-screen-1204743" transform="translate(311.517 1047.384)">
        <path id="Path_3766" data-name="Path 3766" d="M57.044,41.923l-2.294-6.152V9.6a3.96,3.96,0,0,0-3.962-3.962H13.665A3.96,3.96,0,0,0,9.7,9.6V35.771L7.408,41.923a3.069,3.069,0,0,0,.313,2.711,2.79,2.79,0,0,0,2.4,1.251H54.227a3.06,3.06,0,0,0,2.4-1.251,2.872,2.872,0,0,0,.418-2.711ZM13.665,7.618H50.786A2.051,2.051,0,0,1,52.768,9.6V32.227L43.591,16.064c-.1-.313-.417-.417-.73-.521a1.184,1.184,0,0,0-.834.313L28.263,29.2l-7.4-6.778a.691.691,0,0,0-.73-.208,1.055,1.055,0,0,0-.73.417L11.683,32.957V9.6a1.98,1.98,0,0,1,1.981-1.981Zm38.374,27.32H12.726l7.716-10.323,7.3,6.674a1.1,1.1,0,0,0,1.356,0L42.549,18.15Zm3.024,8.55a.948.948,0,0,1-.834.417H10.12a.948.948,0,0,1-.834-.417,1.015,1.015,0,0,1-.1-.938l2.19-5.631h41.71l2.19,5.631a1.065,1.065,0,0,1-.209.938Z" fill="#fff" stroke="#fff" stroke-width="1"/>
        <path id="Path_3767" data-name="Path 3767" d="M37.713,44.491H33.438a.938.938,0,0,0,0,1.877h4.275a.938.938,0,1,0,0-1.877Z" transform="translate(-3.297 -5.07)" fill="#fff" stroke="#fff" stroke-width="1"/>
        <path id="Path_3768" data-name="Path 3768" d="M19.8,20.178a4.692,4.692,0,1,0-4.692-4.692A4.74,4.74,0,0,0,19.8,20.178Zm0-7.4a2.711,2.711,0,0,1,0,5.422,2.711,2.711,0,1,1,0-5.422Z" transform="translate(-1.028 -0.673)" fill="#fff" stroke="#fff" stroke-width="1"/>
      </g>
    </g>
  </g>
</svg>
