<svg xmlns="http://www.w3.org/2000/svg" xmlns:xlink="http://www.w3.org/1999/xlink" width="105" height="105" viewBox="0 0 105 105">
  <defs>
    <clipPath id="clip-path">
      <rect id="Rectangle_6202" data-name="Rectangle 6202" width="70" height="70" transform="translate(309 1038)" fill="#fff" stroke="#fff" stroke-width="1"/>
    </clipPath>
  </defs>
  <g id="Group_12645" data-name="Group 12645" transform="translate(-291 -1020)">
    <circle id="Ellipse_579" data-name="Ellipse 579" cx="52.5" cy="52.5" r="52.5" transform="translate(291 1020)" fill="#1492e6"/>
    <g id="Mask_Group_133" data-name="Mask Group 133" clip-path="url(#clip-path)">
      <g id="noun-weather-4721346" transform="translate(297.136 1031.979)">
        <path id="Path_3752" data-name="Path 3752" d="M66.107,35.966a12.2,12.2,0,0,0-23.532-4.508A9.716,9.716,0,0,0,33.108,37a6.848,6.848,0,0,0-6.9,3.384,9.77,9.77,0,0,0,.66,19.517q10.726,0,21.458,0a7.9,7.9,0,0,0,3.213-.6,8.509,8.509,0,0,0,5.315-8.646,8.851,8.851,0,0,0-.732-2.723,12.308,12.308,0,0,0,9.982-11.964ZM54.091,45.177a9.513,9.513,0,0,0-2.943-1.724,9.91,9.91,0,0,0,.311-2.4,1.488,1.488,0,1,0-2.977,0,6.638,6.638,0,0,1-.291,1.96,8.487,8.487,0,0,0-5.7,2.47,1.487,1.487,0,0,0,2.105,2.1,5.454,5.454,0,0,1,9.318,3.9A5.594,5.594,0,0,1,49.4,56.836a5.072,5.072,0,0,1-.992.086q-10.764,0-21.532,0c-3.969,0-6.657-3.114-6.8-6.918a6.817,6.817,0,0,1,5.272-6.481A6.754,6.754,0,0,0,27.326,48.5a1.489,1.489,0,1,0,2.105-2.105A3.765,3.765,0,0,1,28.315,43.7a3.8,3.8,0,1,1,7.607,0,1.488,1.488,0,1,0,2.977,0,6.825,6.825,0,0,0-3.014-5.635,6.712,6.712,0,0,1,10.481-1.879,1.484,1.484,0,1,0,2.022-2.174A9.5,9.5,0,0,0,45.5,32.156a9.227,9.227,0,1,1,8.59,13.021Z" transform="translate(0 1.393)" fill="#fff"/>
        <path id="Path_3753" data-name="Path 3753" d="M48.582,15.547a1.488,1.488,0,0,1,2.977,0v4.086a1.488,1.488,0,1,1-2.977,0Z" transform="translate(4.516 0)" fill="#fff"/>
        <path id="Path_3754" data-name="Path 3754" d="M69.083,33.17a1.488,1.488,0,0,1,0,2.977H65a1.488,1.488,0,0,1,0-2.977Z" transform="translate(6.657 2.741)" fill="#fff"/>
        <path id="Path_3755" data-name="Path 3755" d="M35.633,21.892l2.89,2.89a1.486,1.486,0,1,0,2.1-2.1L37.738,19.79a1.488,1.488,0,0,0-2.105,2.1Z" transform="translate(2.597 0.759)" fill="#fff"/>
        <path id="Path_3756" data-name="Path 3756" d="M64.259,47.181l-2.89-2.893a1.484,1.484,0,0,0-2.1,2.093l2.891,2.894a1.484,1.484,0,0,0,2.1-2.094Z" transform="translate(5.987 4.273)" fill="#fff"/>
        <path id="Path_3757" data-name="Path 3757" d="M62.591,20.219,59.7,23.11a1.483,1.483,0,0,0,2.093,2.1l2.887-2.89a1.483,1.483,0,1,0-2.093-2.1Z" transform="translate(6.049 0.822)" fill="#fff"/>
      </g>
    </g>
  </g>
</svg>
